<?xml version="1.0" encoding="utf-8"?>
<!-- Svg Vector Icons : http://www.onlinewebfonts.com/icon -->
<!DOCTYPE svg PUBLIC "-//W3C//DTD SVG 1.1//EN" "http://www.w3.org/Graphics/SVG/1.1/DTD/svg11.dtd">
<svg version="1.1" xmlns="http://www.w3.org/2000/svg" xmlns:xlink="http://www.w3.org/1999/xlink" x="0px" y="0px" viewBox="0 0 1000 1000" enable-background="new 0 0 1000 1000" xml:space="preserve" style="fill: rgb(255, 255, 255);">
<g><path d="M10,990h445.5V544.5H10V990z M99.1,633.6h267.3v266.6H99.1V633.6z"/><path d="M188.2,722.7h89.1v89.1h-89.1V722.7L188.2,722.7z"/><path d="M722.7,900.9h89.1V990h-89.1V900.9z"/><path d="M900.9,900.9H990V990h-89.1V900.9z"/><path d="M900.9,633.6h-89.1v-89.1H544.5V990h89.1V722.7h89.1v89.1H990V544.5l0,0h-89.1V633.6z"/><path d="M10,455.5h445.5V10H10V455.5z M99.1,99.1h267.3v267.3H99.1V99.1z"/><path d="M188.2,188.2h89.1v89.1h-89.1V188.2L188.2,188.2z"/><path d="M544.5,10v445.5H990V10H544.5z M900.9,366.4H633.6V99.1h267.3V366.4z"/><path d="M722.7,188.2h89.1v89.1h-89.1V188.2z"/></g>
</svg>
