<?xml version="1.0" encoding="utf-8"?>
<!-- Svg Vector Icons : http://www.onlinewebfonts.com/icon -->
<!DOCTYPE svg PUBLIC "-//W3C//DTD SVG 1.1//EN" "http://www.w3.org/Graphics/SVG/1.1/DTD/svg11.dtd">
<svg version="1.1" xmlns="http://www.w3.org/2000/svg" xmlns:xlink="http://www.w3.org/1999/xlink" x="0px" y="0px" viewBox="0 0 1000 1000" enable-background="new 0 0 1000 1000" xml:space="preserve" style="fill: rgb(255, 255, 255);">
<g><path d="M505.2,990C243.3,990,31,777.7,31,515.8c0-170.4,90-319.4,225-402.9c8-4.9,15.6-10.8,24.5-14.1c25.8-9.9,46.8-22.6,59.7-8c15.9,18-0.9,22.7-24.8,35.6c-7.2,3.9-20.5,12-30.8,17.8C136.1,227.1,70.9,377.3,70.9,516.6C70.9,765.1,287.9,947,505.2,947c217.2,0,422.3-170.1,422.3-431.2c0-112.1-41.1-266.5-174.7-352.7c-2.9-1.8-5.8-3.7-8.2-6.2c-23.2-24.4-32.8-25.8-21.4-43.7c7-10.9-10.8,5.1-0.4,0.2c15.1-7.1,26.2-4.2,45.8,8.6C896.5,205.8,969,351.5,969,515.8C969,777.7,767.1,990,505.2,990z"/><path d="M509.8,10h-0.3c17.5,0,21.9,14.2,21.9,31.6v474.2c0,17.5-4.4,31.6-21.9,31.6h0.3c-17.4,0-20.5-14.2-20.5-31.6V41.6C489.2,24.2,492.3,10,509.8,10z"/></g>
</svg>
