<?xml version="1.0" encoding="utf-8"?>
<!-- Svg Vector Icons : http://www.onlinewebfonts.com/icon -->
<!DOCTYPE svg PUBLIC "-//W3C//DTD SVG 1.1//EN" "http://www.w3.org/Graphics/SVG/1.1/DTD/svg11.dtd">
<svg version="1.1" xmlns="http://www.w3.org/2000/svg" xmlns:xlink="http://www.w3.org/1999/xlink" x="0px" y="0px" viewBox="0 0 1000 1000" enable-background="new 0 0 1000 1000" xml:space="preserve" style="fill: rgb(255, 255, 255);">
<g><path d="M770.3,825.6L442.7,500l325.6-321.5c38.9-38.9,38.9-100.4,0-139.3C729.4,0.3,665.9,0.3,627,39.2L239.9,420.1c-4.1,2-8.2,6.1-12.3,8.2c-20.5,18.4-28.7,45.1-28.7,69.6s10.2,51.2,28.7,69.6c4.1,4.1,8.2,6.1,12.3,8.2l389.1,385c38.9,38.9,102.4,38.9,141.3,0C811.3,926,811.3,864.6,770.3,825.6L770.3,825.6z"/></g>
</svg>
