<?xml version="1.0" encoding="utf-8"?>
<!-- Svg Vector Icons : http://www.onlinewebfonts.com/icon -->
<!DOCTYPE svg PUBLIC "-//W3C//DTD SVG 1.1//EN" "http://www.w3.org/Graphics/SVG/1.1/DTD/svg11.dtd">
<svg version="1.1" xmlns="http://www.w3.org/2000/svg" xmlns:xlink="http://www.w3.org/1999/xlink" x="0px" y="0px" viewBox="0 0 1000 1000" enable-background="new 0 0 1000 1000" xml:space="preserve" style="fill: rgb(255, 255, 255);">
<g><path d="M942.5,925.7C919.8,769.8,816.2,640,675.4,580.1c83-56.1,137.6-150.8,137.6-258.3C813,149.6,672.9,10,500,10c-172.9,0-313,139.6-313,311.8c0,107.5,54.6,202.2,137.6,258.3C183.8,640,80.2,769.8,57.5,925.7c-3,6-4.7,12.7-4.7,19.8c0,24.6,20,44.5,44.7,44.5c24.7,0,44.7-19.9,44.7-44.5c0,0,86.2-311.8,357.7-311.8c294.6,0,357.7,311.8,357.7,311.8c0,24.6,20,44.5,44.7,44.5c24.7,0,44.7-19.9,44.7-44.5C947.1,938.3,945.5,931.6,942.5,925.7L942.5,925.7z M500,544.5c-123.5,0-223.6-99.7-223.6-222.7c0-123,100.1-222.7,223.6-222.7c123.5,0,223.6,99.7,223.6,222.7C723.6,444.8,623.5,544.5,500,544.5L500,544.5z"/></g>
</svg>
