<?xml version="1.0" encoding="utf-8"?>
<!-- Svg Vector Icons : http://www.onlinewebfonts.com/icon -->
<!DOCTYPE svg PUBLIC "-//W3C//DTD SVG 1.1//EN" "http://www.w3.org/Graphics/SVG/1.1/DTD/svg11.dtd">
<svg version="1.1" xmlns="http://www.w3.org/2000/svg" xmlns:xlink="http://www.w3.org/1999/xlink" x="0px" y="0px" viewBox="0 0 1000 1000" enable-background="new 0 0 1000 1000" xml:space="preserve" style="fill: rgb(255, 255, 255);">
<g><path d="M71.3,867.5v-245H10v245C10,934.9,65.1,990,132.5,990h245v-61.2h-245C98.8,928.8,71.3,901.2,71.3,867.5z M10,132.5v245h61.3v-245c0-33.7,27.6-61.3,61.3-61.3h245V10h-245C65.1,10,10,65.1,10,132.5z M867.5,10h-245v61.3h245c33.7,0,61.3,27.6,61.3,61.3v245H990v-245C990,65.1,934.9,10,867.5,10z M928.8,867.5c0,33.7-27.6,61.3-61.3,61.3h-245V990h245c67.4,0,122.5-55.1,122.5-122.5v-245h-61.2V867.5z"/></g>
</svg>
